<svg width="59" height="58" viewBox="0 0 59 58" fill="none" xmlns="http://www.w3.org/2000/svg">
<path d="M50.2183 5.28361L41.63 13.8545C41.3875 14.0974 41.0895 14.2777 40.7615 14.38C40.4336 14.4823 40.0856 14.5034 39.7477 14.4415L11.1594 11.7411L9.15944 13.6196L29.5124 21.8383C29.8847 21.9194 30.2173 22.1269 30.4536 22.4253C30.6789 22.6236 30.8594 22.8675 30.983 23.1408C31.1066 23.4141 31.1705 23.7105 31.1705 24.0103C31.1705 24.3102 31.1066 24.6066 30.983 24.8798C30.8594 25.1531 30.6789 25.397 30.4536 25.5954L21.0418 34.9881C20.7493 35.1329 20.4272 35.2083 20.1006 35.2083C19.7741 35.2083 19.452 35.1329 19.1594 34.9881L9.27709 33.4618L6.8065 36.0447L17.0418 41.0933C17.2772 41.1614 17.4944 41.2811 17.6776 41.4436C17.8607 41.606 18.0053 41.8073 18.1006 42.0326L22.8065 52.0124L25.2771 49.5468L24.3359 39.8018C24.1711 39.4949 24.0849 39.1521 24.0849 38.8039C24.0849 38.4556 24.1711 38.1128 24.3359 37.8059L33.7477 28.2958C34.0195 28.242 34.2993 28.242 34.5712 28.2958C34.8405 28.1842 35.13 28.1293 35.4215 28.1346C35.7131 28.1399 36.0004 28.2052 36.2655 28.3264C36.5305 28.4477 36.7677 28.6222 36.962 28.8392C37.1563 29.0562 37.3036 29.3108 37.3947 29.5873L45.7477 50.0164L47.8653 47.6682L44.3359 19.1379C44.2769 18.7904 44.3112 18.4336 44.4352 18.1036C44.5591 17.7737 44.7684 17.4824 45.0418 17.2593L53.63 8.68847C54.015 8.22093 54.2143 7.62842 54.1899 7.02374C54.1655 6.41907 53.9191 5.84447 53.4976 5.40937C53.0762 4.97426 52.5091 4.70904 51.9044 4.6642C51.2997 4.61936 50.6995 4.79803 50.2183 5.1662V5.28361ZM47.0418 2.11357C48.3211 0.821307 50.0624 0.0891381 51.8826 0.0781289C53.7028 0.0671197 55.4528 0.778172 56.7477 2.05486C58.0426 3.33155 58.7762 5.0693 58.7873 6.88582C58.7983 8.70234 58.0858 10.4488 56.8065 11.7411L48.9242 19.6075L52.3359 48.2553C52.3475 48.5817 52.2906 48.9069 52.1691 49.2101C52.0475 49.5134 51.864 49.788 51.63 50.0164L46.5712 55.065C46.3725 55.2899 46.1281 55.47 45.8543 55.5933C45.5804 55.7167 45.2834 55.7805 44.983 55.7805C44.6825 55.7805 44.3855 55.7167 44.1117 55.5933C43.8379 55.47 43.5935 55.2899 43.3947 55.065C43.3561 54.7924 43.3561 54.5157 43.3947 54.2431L35.1594 33.9314L28.9242 40.1541L30.3359 49.899C30.4045 50.2643 30.3753 50.6411 30.2514 50.9915C30.1275 51.3419 29.9131 51.6536 29.63 51.895L24.3359 57.2958C24.1372 57.5206 23.8928 57.7007 23.619 57.8241C23.3451 57.9475 23.0481 58.0113 22.7477 58.0113C22.4472 58.0113 22.1502 57.9475 21.8764 57.8241C21.6026 57.7007 21.3582 57.5206 21.1594 57.2958V56.5913L15.5124 44.8504L1.98297 38.6277C1.64698 38.5243 1.34018 38.3432 1.08749 38.0992C0.834814 37.8551 0.643384 37.5551 0.528758 37.2233C0.414132 36.8916 0.379544 36.5375 0.427805 36.1899C0.476065 35.8424 0.605812 35.511 0.806504 35.2229C1.03858 35.168 1.28031 35.168 1.51239 35.2229L6.92415 29.8221C7.22101 29.6928 7.54143 29.626 7.86533 29.626C8.18923 29.626 8.50964 29.6928 8.8065 29.8221L18.6889 31.231L24.9242 25.0083L4.45356 15.9678C4.17238 15.864 3.915 15.7049 3.69672 15.4998C3.47844 15.2947 3.30374 15.0478 3.183 14.774C3.06226 14.5001 2.99795 14.2048 2.9939 13.9057C2.98986 13.6065 3.04615 13.3096 3.15945 13.0326V12.3281L8.68886 7.16215C9.00556 7.02975 9.34549 6.96157 9.68886 6.96157C10.0322 6.96157 10.3722 7.02975 10.6889 7.16215L39.2771 9.97996L47.0418 2.11357Z" fill="#C0965C"/>
</svg>
