<svg width="59" height="56" viewBox="0 0 59 56" fill="none" xmlns="http://www.w3.org/2000/svg">
<path d="M28.4916 22.1222C28.4763 21.0866 28.049 20.0964 27.2982 19.3568C26.6054 18.666 25.6672 18.2543 24.6726 18.2045H17.6315C17.4831 18.2756 17.3198 18.3126 17.1541 18.3126C16.9885 18.3126 16.8251 18.2756 16.6768 18.2045C16.5676 17.9063 16.5676 17.5809 16.6768 17.2827V12.5584C16.6032 12.4152 16.5649 12.2574 16.5649 12.0975C16.5649 11.9376 16.6032 11.7799 16.6768 11.6366C16.9856 11.5312 17.3226 11.5312 17.6315 11.6366H24.6726C25.0352 11.6839 25.3717 11.8448 25.6304 12.0946C25.8891 12.3444 26.0558 12.6693 26.1047 13.0193C26.086 13.1902 26.107 13.363 26.1663 13.5251C26.2256 13.6871 26.3218 13.8343 26.4476 13.9558C26.5735 14.0773 26.7259 14.1701 26.8937 14.2274C27.0615 14.2847 27.2405 14.305 27.4175 14.2868C27.7657 14.2868 28.0996 14.1533 28.3458 13.9156C28.592 13.6779 28.7303 13.3555 28.7303 13.0193C28.715 11.9838 28.2877 10.9936 27.5368 10.2539C27.2287 9.77304 26.8101 9.36706 26.3134 9.06736C25.8168 8.76765 25.2554 8.58226 24.6726 8.52551H22.4052V7.48847C22.4052 7.30689 22.3681 7.12709 22.2961 6.95933C22.2242 6.79157 22.1187 6.63914 21.9857 6.51074C21.8527 6.38234 21.6949 6.28049 21.5211 6.21101C21.3474 6.14152 21.1611 6.10575 20.9731 6.10575C20.7901 6.10502 20.6091 6.14121 20.4415 6.21198C20.2739 6.28276 20.1235 6.38657 19.9999 6.51676C19.8763 6.64694 19.7823 6.80063 19.7238 6.96797C19.6653 7.1353 19.6437 7.31259 19.6603 7.48847V8.52551H17.6315C17.0882 8.52789 16.5516 8.64219 16.0577 8.86077C15.5638 9.07934 15.1239 9.39716 14.7673 9.793C14.3573 10.1373 14.0282 10.562 13.8018 11.0389C13.5754 11.5158 13.457 12.0338 13.4545 12.5584V16.8218C13.4404 17.3489 13.5514 17.8721 13.7789 18.3514C14.0065 18.8308 14.3445 19.2535 14.7673 19.5872C15.5038 20.3023 16.4733 20.75 17.5122 20.8547H24.6726C24.9796 20.739 25.3204 20.739 25.6274 20.8547C25.7366 21.1529 25.7366 21.4783 25.6274 21.7765V26.5008C25.7366 26.799 25.7366 27.1244 25.6274 27.4226C25.3204 27.5383 24.9796 27.5383 24.6726 27.4226H17.6315C17.3245 27.5383 16.9837 27.5383 16.6768 27.4226C16.5676 27.1244 16.5676 26.799 16.6768 26.5008C16.6934 26.3249 16.6718 26.1476 16.6133 25.9803C16.5548 25.813 16.4607 25.6593 16.3371 25.5291C16.2135 25.3989 16.0631 25.2951 15.8956 25.2243C15.728 25.1535 15.5469 25.1174 15.364 25.1181C15.1759 25.1181 14.9897 25.1539 14.816 25.2233C14.6422 25.2928 14.4843 25.3947 14.3514 25.5231C14.2184 25.6515 14.1129 25.8039 14.0409 25.9717C13.969 26.1394 13.9319 26.3192 13.9319 26.5008C13.9344 27.0254 14.0528 27.5434 14.2791 28.0203C14.5055 28.4972 14.8347 28.922 15.2447 29.2662C16.0107 29.9912 17.0363 30.4038 18.1089 30.4185H20.1377V31.5708C20.1377 31.9069 20.276 32.2293 20.5222 32.467C20.7684 32.7047 21.1023 32.8383 21.4504 32.8383C21.6326 32.8543 21.8162 32.8334 21.9895 32.777C22.1628 32.7205 22.322 32.6297 22.4568 32.5104C22.5917 32.391 22.6992 32.2458 22.7725 32.084C22.8458 31.9222 22.8833 31.7474 22.8825 31.5708V30.4185H24.6726C25.7488 30.4185 26.7809 30.0058 27.5418 29.271C28.3028 28.5363 28.7303 27.5399 28.7303 26.5008V23.044V22.1222H28.4916ZM46.5122 18.5502C44.7757 17.7947 42.9198 17.3273 41.0224 17.1675C40.5699 13.5409 39.0701 10.1103 36.6942 7.26757C34.3184 4.42486 31.1623 2.28468 27.5865 1.09149C24.0108 -0.10169 20.1595 -0.299756 16.4727 0.51992C12.7859 1.3396 9.41224 3.14396 6.73706 5.7269C4.06187 8.30984 2.19306 11.5672 1.34411 15.1269C0.495163 18.6865 0.700303 22.405 1.9361 25.8574C3.1719 29.3099 5.38852 32.3571 8.33275 34.6511C11.277 36.945 14.8301 38.3931 18.5862 38.83C18.9664 42.2265 20.2707 45.4654 22.3668 48.2177C24.4628 50.9701 27.2759 53.1378 30.5204 54.5008C32.9837 55.4727 35.6166 55.9811 38.2776 55.9988C43.6695 56.0296 48.8549 53.9988 52.701 50.35C56.5471 46.7013 58.7414 41.7312 58.8043 36.5255C58.8293 32.7358 57.715 29.0205 55.5968 25.8299C53.4785 22.6394 50.4472 20.1106 46.8702 18.5502H46.5122ZM5.33932 19.472C5.31573 16.4541 6.22255 13.4976 7.94441 10.9788C9.66627 8.45995 12.1253 6.49264 15.0086 5.32719C17.892 4.16173 21.0692 3.85082 24.1361 4.43402C27.2029 5.01722 30.0208 6.46816 32.2311 8.60221C34.4413 10.7363 35.9441 13.4569 36.5481 16.4181C37.1521 19.3792 36.8301 22.4469 35.6231 25.2308C34.416 28.0147 32.3784 30.3889 29.7696 32.0514C27.1608 33.7139 24.0988 34.5894 20.9731 34.5667C16.8267 34.5667 12.8502 32.9763 9.91833 30.1455C6.98644 27.3147 5.33932 23.4754 5.33932 19.472ZM49.7344 47.1263C46.7892 49.9729 42.8027 51.587 38.6356 51.6202C36.5515 51.5931 34.4896 51.2028 32.5492 50.4679C30.1043 49.4627 27.96 47.8811 26.3127 45.8678C24.6655 43.8546 23.5681 41.4743 23.1212 38.9453C26.201 38.5802 29.1682 37.5991 31.8331 36.0646V36.6407C32.5554 37.3586 33.5416 37.7726 34.578 37.793H41.4998C41.8068 37.6773 42.1476 37.6773 42.4545 37.793C42.5455 38.1331 42.5455 38.4899 42.4545 38.83V43.0934C42.4056 43.4435 42.2389 43.7684 41.9802 44.0182C41.7215 44.2679 41.385 44.4288 41.0224 44.4761H35.1747C34.8658 44.5816 34.5289 44.5816 34.22 44.4761C34.1001 44.1797 34.1001 43.8507 34.22 43.5543C34.1924 43.1964 34.0327 42.86 33.7698 42.6062C33.507 42.3524 33.1586 42.1982 32.7879 42.1716C32.4291 42.2006 32.0948 42.3589 31.8515 42.6152C31.6083 42.8714 31.4739 43.2067 31.4751 43.5543C31.4904 44.5899 31.9177 45.5801 32.6685 46.3197C33.0251 46.7156 33.465 47.0334 33.9589 47.252C34.4529 47.4705 34.9894 47.5848 35.5327 47.5872H37.5615V48.6243C37.5615 48.8058 37.5986 48.9856 37.6706 49.1534C37.7425 49.3212 37.848 49.4736 37.981 49.602C38.114 49.7304 38.2718 49.8322 38.4456 49.9017C38.6193 49.9712 38.8056 50.007 38.9936 50.007C39.1765 50.0077 39.3576 49.9715 39.5252 49.9008C39.6928 49.83 39.8432 49.7262 39.9668 49.596C40.0904 49.4658 40.1844 49.3121 40.2429 49.1448C40.3014 48.9774 40.323 48.8001 40.3064 48.6243V47.472H42.3352C43.3258 47.3454 44.2255 46.849 44.8414 46.0893C45.2358 45.7393 45.5468 45.3107 45.7529 44.8332C45.9589 44.3557 46.0551 43.8407 46.0348 43.3239V39.1757C46.0568 38.6415 45.9619 38.1089 45.7562 37.6125C45.5506 37.1161 45.2388 36.6672 44.8414 36.2951C44.1191 35.5772 43.1329 35.1631 42.0965 35.1428H35.1747C34.9813 35.1211 34.7953 35.0582 34.6301 34.9586C34.465 34.8589 34.3249 34.725 34.22 34.5667C36.3818 32.8343 38.132 30.6728 39.3517 28.2292H42.2159C42.5784 28.2765 42.9149 28.4374 43.1736 28.6872C43.4323 28.937 43.599 29.2618 43.648 29.6119C43.648 29.9481 43.7863 30.2705 44.0325 30.5082C44.2786 30.7459 44.6125 30.8794 44.9607 30.8794C45.3089 30.8794 45.6428 30.7459 45.889 30.5082C46.1352 30.2705 46.2735 29.9481 46.2735 29.6119C46.2735 28.5729 45.846 27.5764 45.085 26.8417C44.3241 26.107 43.292 25.6942 42.2159 25.6942H40.187C40.6748 24.3926 40.9954 23.0382 41.1418 21.6613C42.3943 21.7758 43.611 22.1283 44.722 22.6983C47.0563 23.6651 49.1114 25.1664 50.7096 27.0724C52.3078 28.9783 53.4011 31.2316 53.8947 33.6372C54.3882 36.0427 54.2674 38.5282 53.5425 40.8786C52.8176 43.2289 51.5105 45.3733 49.7344 47.1263Z" fill="#C0965C"/>
</svg>
