<svg width="1920" height="470" viewBox="0 0 1920 470" fill="none" xmlns="http://www.w3.org/2000/svg">
<path d="M1947.31 3.2975L1942.47 4.89545L1927.6 2L1914.66 8.20121L1900.89 9.66801L1886.47 7.79812L1874.96 19.795L1861.12 20.4486L1850.57 30.5088L1836.03 30.4707L1824.43 37.7236L1812.07 43.1425L1800.49 51.4903L1785.86 48.404L1773.95 58.6026L1759.87 53.1503L1746.22 54.9678L1732.63 57.5079L1719.01 60.0503L1706 64.427L1694.73 74.3966L1680.65 73.5856L1667.64 77.2563L1654.99 78.3153L1642.96 84.7382L1629.52 79.9204L1618.3 88.3564L1607.13 94.3549L1593.93 95.0966L1583.22 102.421L1573 110.573L1558.8 111.1L1548.89 121.743L1536.96 128.96L1521.92 125.859L1511.16 137.663L1498.67 142.922L1485.11 144.334L1472.13 148.129L1460.17 154.692L1446.8 159.742L1440.89 175.939L1430.84 186.528L1419.93 196.763L1409.83 208.462L1395.01 211.562L1381.55 218.586L1367.23 210.63L1352.64 209.27L1337.41 211.052L1323.26 207.999L1309.49 210.081L1295.72 202.969L1281.87 209.251L1268.12 206.675L1254.45 204.982L1240.6 204.223L1227.07 201.099L1215.37 191.814L1200.41 192.751L1188.76 184.403L1176.25 178.121L1164.82 169.864L1151.19 165.416L1142.29 152.746L1129.42 146.624L1116.58 140.446L1106.65 129.628L1096.34 119.36L1085.36 110.042L1070.03 108.329L1058.98 99.2419L1046.14 93.6131L1034.66 84.8408L1021.37 85.3703L1010.41 75.3315L997.617 73.5141L984.847 72.4551L972.101 72.2953L959.331 75.9468L946.8 71.8731L934.388 70.3181L921.284 72.5076L908.705 63.523L897.152 53.3602L885.457 42.842L869.966 40.4951L859.392 47.5883L848.006 52.8474L838.244 61.5648L824.137 64.3888L814.733 73.7764L805.973 85.7948L790.602 88.1418L783.25 101.961L769.239 106.6L761.84 120.047L749.022 126.506L741.599 139.564L727.588 145.016L718.852 156.465L708.254 165.96L700.091 177.942L692.668 190.469L686.223 202.647L679.253 214.522L665.887 219.8L659.92 233.352L649.179 241.788L635.335 242.981L623.257 249.017L611.036 241.18L596.763 246.792L586.8 235.408L572.156 237.369L563.916 223.535L550.266 222.402L537.484 219.454L526.505 211.779L515.171 203.804L501.411 205.921L489.584 197.433L475.814 204.033L463.078 202.02L450.559 195.773L437.698 194.58L424.551 196.25L411.647 194.75L398.93 192.033L386.184 185.064L372.681 182.095L359.133 178.994L345.39 176.592L331.324 176.609L317.571 176.327L304.006 169.323L290.451 174.918L276.779 171.068L263.274 174.846L249.628 175.562L236.044 173.516L222.677 170.692L208.292 171.839L196.885 162.186L185.189 154.9L172.08 150.433L158.714 146.287L149.93 132.716L135.303 131.956L122.283 128.445L109.279 124.917L96.8479 118.07L83.7629 121.597L70.9668 124.44L58.2209 126.451L45.451 128.409L32.1798 120.3L19.5294 127.748L6.46588 129.418L-6.37791 125.482L-20.3722 125.924L-33.0895 118.628L-45.74 112.822L-58.4336 107.668L-73.3469 109.452L-85.2144 101.441L-98.0225 96.3059L-111.389 92.9358L-124.161 87.6409L-136.592 80.5453L-151.63 84.7287L-164.368 78.8686L-176.363 70.082L-189.311 65.8293L-204.449 68.6342L-215.391 58.3116L-229.518 57.868L-237.634 46.911L-246 38.2746" stroke="#232323" stroke-width="2"/>
<path d="M2092.34 329.817L2084.92 329.46L2059.57 325.293L2033.86 325.107L2008.75 320.298L1983.83 314.555L1957.93 314.894L1932.61 311.524L1908.64 301.533L1882.25 303.512L1856.85 300.636L1832.45 292.927L1808.37 288.1L1783.38 284.63L1764.62 267.793L1742.99 257.664L1718.07 252.55L1697.83 239.814L1677.02 227.958L1654.32 219.052L1634.68 204.98L1605.29 200.983L1576.6 197.138L1548.77 189.143L1525.19 179.505L1507.26 163.027L1486.26 150.493L1465.4 137.454L1441.12 130.966L1415.87 130.289L1391.6 137.587L1367.51 142.212L1342.62 143.669L1317.87 146.462L1295.19 156.914L1270.99 162.28L1246.83 168.581L1221.39 173.829L1197.11 181.857L1173.2 190.884L1148.32 198.693L1121.26 198.643L1101.83 182.365L1078.41 191.428L1055.81 201.808L1032.18 210.363L1007.07 214.418L982.34 216.366L956.753 219.515L931.738 211.644L905.387 210.69L879.609 207.286L853.902 202.342L829.389 205.424L804.995 205.018L780.815 208.357L756.589 210.814L731.669 209.815L707.657 214.167L682.929 213.915L659.514 222.789L634.619 218.234L610.463 219.011L586.05 221.501L561.773 221.485L539.394 210.917L514.742 214.473L491.384 217.301L465.811 221.833L446.537 238.025L422.386 246.9L403.305 262.515L383.186 277.214L360.272 288.446L335.04 294.814L309.262 296.961L282.051 301.311L254.602 297.297L227.189 300.5L199.792 299.737L171.877 299.431L148.178 309.714L122.569 311.948L96.8646 314.438L74.3777 327.394L49.0767 331.339L-3.5 325" stroke="#232323" stroke-width="2"/>
<path d="M2336.61 386.233L2315.97 382.179L2300.91 369.173L2279.09 362.888L2257.27 356.532L2240.42 345.446L2222.95 334.887L2204.31 325.347L2178.34 323.592L2159.58 314.263L2137.83 308.484L2118.33 299.483L2095.78 300.027L2077.18 289.702L2055.51 287.856L2033.84 286.768L2012.21 286.604L1990.54 290.336L1969.32 286.172L1948.24 284.579L1926.04 286.823L1904.66 277.605L1885.09 267.173L1865.25 256.359L1838.97 253.974L1821.05 261.255L1801.71 266.653L1785.15 275.58L1761.23 278.497L1745.26 288.133L1730.44 300.466L1704.35 302.875L1691.89 317.056L1668.12 321.827L1655.56 335.61L1633.79 342.257L1621.19 355.659L1597.47 361.238L1582.62 373.01L1564.62 382.753L1550.8 395.053L1538.25 407.913L1527.29 420.409L1515.48 432.597L1492.8 437.996L1482.68 451.906L1464.47 460.564L1440.96 461.811L1420.45 468.013L1399.78 459.956L1375.53 465.716L1358.63 454.029L1333.81 456.039L1319.82 441.841L1296.65 440.663L1274.97 437.636L1256.36 429.765L1237.12 421.561L1213.77 423.753L1193.7 415.023L1170.36 421.816L1148.75 419.751L1127.51 413.34L1105.69 412.125L1083.4 413.845L1061.51 412.307L1039.94 409.516L1018.31 402.361L995.444 399.299L972.435 396.131L949.139 393.667L925.27 393.687L901.95 393.396L878.941 386.188L855.955 391.945L832.754 387.998L809.84 391.874L786.687 392.618L763.654 390.517L740.978 387.616L716.584 388.795L697.251 378.887L677.415 371.408L655.17 366.823L632.518 362.568L617.624 348.642L592.8 347.862L570.712 344.258L548.648 340.635L527.569 333.59L505.371 337.229L483.65 340.149L462.032 342.212L440.369 344.222L417.86 335.891L396.378 343.552L374.226 345.272L352.438 341.217L328.701 341.694L307.099 334.176L285.617 328.214L264.088 322.926L238.787 324.753L218.655 316.529L196.935 311.258L174.259 307.8L160 304.5" stroke="#232323" stroke-width="2"/>
</svg>
