<svg width="46" height="35" viewBox="0 0 46 35" fill="none" xmlns="http://www.w3.org/2000/svg">
<path d="M1.21273 11.5338L7.90817 0.994636C8.04804 0.750174 8.2453 0.543417 8.48291 0.392207C8.72053 0.240997 8.99137 0.149877 9.27206 0.126709L37.5417 0.126709C37.8599 0.126709 38.171 0.220903 38.4358 0.397421C38.7006 0.573939 38.9072 0.824882 39.0296 1.11863L45.353 11.6577C45.5663 11.9678 45.6805 12.3353 45.6805 12.7117C45.6805 13.088 45.5663 13.4555 45.353 13.7656L24.6468 34.2239C24.4955 34.406 24.306 34.5525 24.0917 34.6531C23.8774 34.7536 23.6436 34.8058 23.4069 34.8058C23.1702 34.8058 22.9363 34.7536 22.722 34.6531C22.5078 34.5525 22.3182 34.406 22.167 34.2239L1.21273 13.7656C0.950345 13.4529 0.806519 13.0578 0.806519 12.6497C0.806519 12.2415 0.950345 11.8464 1.21273 11.5338ZM5.1804 11.5338H13.6117L9.76802 4.46635L5.55237 11.5338H5.1804ZM37.0457 4.46635L32.7061 11.5338H41.2614L37.0457 4.46635ZM40.5175 13.5176H31.5902L26.0107 27.5284L40.5175 13.5176ZM20.3071 27.5284L15.0996 13.5176H6.29631L20.3071 27.5284ZM35.3099 3.59842H26.0107L30.9702 10.6658L35.3099 3.59842ZM20.9271 3.59842H11.5039L15.9675 10.6658L20.9271 3.59842ZM17.8273 11.5338H28.9864L23.4069 3.59842L17.8273 11.5338ZM29.4824 13.5176H17.0834L23.1589 30.1322L29.2344 13.5176H29.4824Z" fill="#C0965C"/>
</svg>
