<svg width="37" height="43" viewBox="0 0 37 43" fill="none" xmlns="http://www.w3.org/2000/svg">
<path d="M17.1979 22.153L1.32718 2.93456C1.11825 2.74238 0.963775 2.49843 0.879386 2.22739C0.794998 1.95634 0.783688 1.66782 0.846601 1.391C0.909514 1.11418 1.04442 0.858891 1.23767 0.650947C1.43092 0.443002 1.67566 0.289783 1.94713 0.206787C2.31144 0.100016 2.69873 0.100016 3.06304 0.206787H34.1844C34.6448 0.206787 35.0863 0.389672 35.4119 0.715207C35.7374 1.04074 35.9203 1.48226 35.9203 1.94264C36.0345 2.30584 36.0345 2.69535 35.9203 3.05855L19.9256 22.153V39.0155H28.6049C29.0653 39.0155 29.5068 39.1984 29.8323 39.524C30.1579 39.8495 30.3408 40.291 30.3408 40.7514C30.3408 41.2118 30.1579 41.6533 29.8323 41.9788C29.5068 42.3044 29.0653 42.4873 28.6049 42.4873H8.51858C8.29606 42.4879 8.07581 42.4425 7.8717 42.3538C7.6676 42.2652 7.48406 42.1353 7.33264 41.9722C7.18122 41.8091 7.06521 41.6165 6.99191 41.4064C6.9186 41.1963 6.8896 40.9733 6.90672 40.7514C6.90559 40.3117 7.07136 39.888 7.37054 39.5658C7.66972 39.2436 8.08002 39.047 8.51858 39.0155H17.5698V22.4009L17.1979 22.153ZM8.76656 6.28228H28.4809L30.5887 3.55451H6.53475L8.76656 6.28228ZM26.7451 8.26611H10.3784L18.5617 18.4333L26.7451 8.26611ZM20.5456 9.75399C20.0194 9.75399 19.5148 9.963 19.1428 10.335C18.7708 10.7071 18.5617 11.2117 18.5617 11.7378C18.5933 12.2422 18.8162 12.7155 19.1849 13.0611C19.5535 13.4068 20.0402 13.5987 20.5456 13.5977C20.7898 13.5977 21.0317 13.5496 21.2573 13.4561C21.483 13.3626 21.688 13.2256 21.8607 13.0529C22.0334 12.8802 22.1704 12.6752 22.2638 12.4496C22.3573 12.2239 22.4054 11.9821 22.4054 11.7378C22.4064 11.2325 22.2145 10.7458 21.8689 10.3771C21.5232 10.0084 21.0499 9.78557 20.5456 9.75399Z" fill="#C0965C"/>
</svg>
