<svg width="59" height="54" viewBox="0 0 59 54" fill="none" xmlns="http://www.w3.org/2000/svg">
<path d="M28.3563 52.2957L6.28338 30.2279C3.84556 28.0826 2.02214 25.3279 0.999976 22.246C0.297818 19.0671 0.584589 15.7495 1.82184 12.7381C2.83876 10.2623 4.35789 8.02412 6.28338 6.16473C8.30473 4.12655 10.8088 2.63253 13.5627 1.82161C16.5434 0.884455 19.74 0.884455 22.7206 1.82161C25.3747 2.5725 27.8503 3.84995 30 5.57782C32.0709 3.74583 34.5142 2.38426 37.1619 1.58685C40.1823 0.647645 43.4168 0.647645 46.4372 1.58685C49.1431 2.42901 51.6018 3.92004 53.5992 5.92997C55.6507 7.89115 57.2183 10.3022 58.1781 12.9729C59.0557 15.9218 59.0557 19.0623 58.1781 22.0112C57.289 25.0424 55.6307 27.7922 53.3643 29.9932L31.5263 52.2957C31.328 52.5205 31.0841 52.7005 30.8108 52.8239C30.5375 52.9472 30.2411 53.011 29.9413 53.011C29.6414 53.011 29.345 52.9472 29.0718 52.8239C28.7985 52.7005 28.5546 52.5205 28.3563 52.2957ZM32.583 8.98188L25.5384 16.0248C25.4291 16.1706 25.2873 16.2889 25.1242 16.3704C24.9612 16.4519 24.7814 16.4943 24.5992 16.4943C24.4169 16.4943 24.2371 16.4519 24.0741 16.3704C23.9111 16.2889 23.7693 16.1706 23.6599 16.0248C23.5141 15.9154 23.3957 15.7737 23.3142 15.6107C23.2327 15.4477 23.1903 15.268 23.1903 15.0857C23.1903 14.9035 23.2327 14.7238 23.3142 14.5608C23.3957 14.3978 23.5141 14.256 23.6599 14.1467L28.1214 9.68617C26.3086 7.89872 24.0946 6.57059 21.6639 5.81258C19.4439 5.14001 17.0743 5.14001 14.8542 5.81258C12.7851 6.511 10.9269 7.72257 9.45342 9.33403C7.93509 10.816 6.77118 12.6216 6.04856 14.6162C5.44499 16.7259 5.44499 18.9625 6.04856 21.0722C6.70852 23.3554 7.9648 25.4217 9.68824 27.0586L30 47.9525L50.4291 27.176C52.1155 25.5095 53.3656 23.4535 54.0688 21.1896C54.6724 19.0799 54.6724 16.8433 54.0688 14.7336C53.328 12.6857 52.1223 10.8375 50.5465 9.33403C49.0464 7.80802 47.1906 6.67861 45.1457 6.04735C42.9131 5.46567 40.5686 5.46567 38.336 6.04735C36.2139 6.68068 34.2521 7.76139 32.583 9.21665V8.98188Z" fill="#C0965C"/>
</svg>
