<svg width="45" height="49" viewBox="0 0 45 49" fill="none" xmlns="http://www.w3.org/2000/svg">
<path d="M44.5761 11.5495V12.6654C44.6526 13.283 44.6526 13.9076 44.5761 14.5252V41.679C44.565 43.3896 43.8995 45.0311 42.7163 46.2666C41.5335 47.4534 39.9281 48.1223 38.2526 48.1264H7.25522C6.40572 48.1339 5.5631 47.9735 4.7758 47.6543C3.98851 47.3352 3.27205 46.8635 2.6676 46.2666C1.48435 45.0311 0.818875 43.3896 0.807759 41.679V14.5252C0.790896 13.6739 0.946142 12.8279 1.26419 12.0381C1.58223 11.2482 2.05653 10.5307 2.65862 9.92863C3.26072 9.32654 3.97821 8.85225 4.76807 8.5342C5.55794 8.21616 6.4039 8.06091 7.25522 8.07777H22.6299C23.244 6.33422 24.264 4.76174 25.6057 3.49015C27.6765 1.49455 30.4182 0.344781 33.293 0.266424C36.2591 0.256231 39.1098 1.41435 41.2284 3.49015C43.2841 5.68214 44.4737 8.54612 44.5761 11.5495ZM33.293 6.09394C34.368 6.09942 35.4174 6.42235 36.3094 7.02218C37.2015 7.62201 37.8964 8.47201 38.3071 9.46545C38.7177 10.4589 38.8257 11.5515 38.6174 12.6061C38.4092 13.6607 37.8941 14.6303 37.1367 15.3932C36.6514 15.9246 36.0562 16.3441 35.3924 16.6225C34.7287 16.9008 34.0123 17.0313 33.293 17.005C32.5738 17.0313 31.8574 16.9008 31.1937 16.6225C30.5299 16.3441 29.9347 15.9246 29.4494 15.3932C28.692 14.6303 28.1769 13.6607 27.9686 12.6061C27.7604 11.5515 27.8684 10.4589 28.279 9.46545C28.6897 8.47201 29.3846 7.62201 30.2767 7.02218C31.1687 6.42235 32.2181 6.09942 33.293 6.09394ZM35.7728 9.19368C35.459 8.84766 35.0763 8.57115 34.6492 8.38192C34.2221 8.19269 33.7602 8.09493 33.293 8.09493C32.8259 8.09493 32.364 8.19269 31.9369 8.38192C31.5098 8.57115 31.1271 8.84766 30.8133 9.19368C30.4833 9.48799 30.223 9.85214 30.0515 10.2597C29.8799 10.6672 29.8013 11.1078 29.8213 11.5495C29.8213 12.4702 30.1871 13.3533 30.8382 14.0044C31.4892 14.6554 32.3723 15.0212 33.293 15.0212C34.2138 15.0212 35.0968 14.6554 35.7479 14.0044C36.399 13.3533 36.7648 12.4702 36.7648 11.5495C36.7848 11.1078 36.7062 10.6672 36.5346 10.2597C36.363 9.85214 36.1028 9.48799 35.7728 9.19368ZM22.01 11.5495H7.25522C6.84039 11.5541 6.43267 11.6578 6.06603 11.8519C5.69939 12.046 5.38443 12.3249 5.1474 12.6654C4.85235 12.9279 4.62088 13.2541 4.47051 13.6193C4.32014 13.9845 4.25481 14.3791 4.27947 14.7732V41.679C4.25481 42.0731 4.32014 42.4677 4.47051 42.8329C4.62088 43.1981 4.85235 43.5243 5.1474 43.7868C5.40991 44.0818 5.7361 44.3133 6.10128 44.4637C6.46646 44.614 6.86106 44.6794 7.25522 44.6547H38.8726C39.2474 44.6695 39.6206 44.5991 39.9642 44.4487C40.3079 44.2984 40.6129 44.0721 40.8564 43.7868C41.1515 43.5243 41.3829 43.1981 41.5333 42.8329C41.6837 42.4677 41.749 42.0731 41.7243 41.679V18.8649C40.7151 20.1471 39.4479 21.2031 38.0047 21.9646L34.5329 26.0563C34.4517 26.1594 34.3481 26.2428 34.23 26.3002C34.1119 26.3575 33.9823 26.3873 33.851 26.3873C33.7197 26.3873 33.5901 26.3575 33.472 26.3002C33.3539 26.2428 33.2503 26.1594 33.1691 26.0563L29.8213 21.9646C27.7919 21.0791 26.0365 19.6663 24.7378 17.873C23.1917 16.1009 22.238 13.8901 22.01 11.5495ZM39.7405 4.97803C38.0763 3.37193 35.8538 2.47435 33.541 2.47435C31.2282 2.47435 29.0057 3.37193 27.3415 4.97803C26.4665 5.83231 25.7737 6.85504 25.3049 7.98448C24.836 9.11393 24.6009 10.3267 24.6138 11.5495C24.4462 13.3442 24.7901 15.1496 25.6057 16.757C26.7317 18.2361 28.2289 19.3911 29.9453 20.1048L32.7971 23.5765L35.6488 20.1048C37.3653 19.3911 38.8625 18.2361 39.9885 16.757C41.3322 15.3184 42.1983 13.4995 42.4683 11.5495C42.4811 10.3267 42.246 9.11393 41.7772 7.98448C41.3084 6.85504 40.6155 5.83231 39.7405 4.97803ZM26.3496 25.0644C26.5542 24.8814 26.8191 24.7802 27.0936 24.7802C27.368 24.7802 27.6329 24.8814 27.8375 25.0644C28.0119 25.2486 28.1091 25.4926 28.1091 25.7463C28.1091 26 28.0119 26.244 27.8375 26.4282L25.6057 28.6601L31.4332 34.6116L38.0047 28.0401C38.202 27.8428 38.4696 27.732 38.7486 27.732C39.0276 27.732 39.2952 27.8428 39.4925 28.0401C39.6898 28.2374 39.8007 28.505 39.8007 28.784C39.8007 29.0631 39.6898 29.3307 39.4925 29.528L32.9211 35.9754L35.0289 38.2073C35.1573 38.2844 35.2635 38.3935 35.3373 38.5238C35.411 38.6542 35.4498 38.8014 35.4498 38.9512C35.4498 39.101 35.411 39.2482 35.3373 39.3786C35.2635 39.5089 35.1573 39.618 35.0289 39.6951C34.8447 39.8695 34.6006 39.9667 34.347 39.9667C34.0933 39.9667 33.8492 39.8695 33.665 39.6951L30.8133 36.7194L24.2418 30.2719L12.4628 42.0509C12.2786 42.2253 12.0345 42.3225 11.7808 42.3225C11.5272 42.3225 11.2831 42.2253 11.0989 42.0509C10.9159 41.8463 10.8147 41.5815 10.8147 41.307C10.8147 41.0325 10.9159 40.7677 11.0989 40.5631L23.4979 28.1641L17.2984 23.8245L9.36304 31.7598C9.15845 31.9428 8.89359 32.044 8.61911 32.044C8.34462 32.044 8.07976 31.9428 7.87517 31.7598C7.69218 31.5552 7.59101 31.2903 7.59101 31.0159C7.59101 30.7414 7.69218 30.4765 7.87517 30.2719L15.8105 22.4606L10.8509 17.377C10.7478 17.2958 10.6644 17.1922 10.607 17.0741C10.5497 16.956 10.5199 16.8264 10.5199 16.6951C10.5199 16.5637 10.5497 16.4342 10.607 16.316C10.6644 16.1979 10.7478 16.0943 10.8509 16.0131C10.9321 15.9099 11.0357 15.8265 11.1538 15.7692C11.272 15.7119 11.4016 15.6821 11.5329 15.6821C11.6642 15.6821 11.7938 15.7119 11.9119 15.7692C12.03 15.8265 12.1336 15.9099 12.2148 16.0131L17.9183 21.5926L23.3739 27.1722L26.3496 25.0644Z" fill="#C0965C"/>
</svg>
