<svg width="45" height="45" viewBox="0 0 45 45" fill="none" xmlns="http://www.w3.org/2000/svg">
<path d="M22.9208 2.53784e-05C25.8207 -0.00437221 28.6931 0.562785 31.3738 1.66908C34.0544 2.77537 36.4907 4.39911 38.5435 6.44749C40.5919 8.50025 42.2156 10.9366 43.3219 13.6172C44.4282 16.2979 44.9953 19.1702 44.991 22.0702C45.0036 24.3898 44.6264 26.695 43.875 28.8896C43.2531 30.9381 42.2889 32.8665 41.0233 34.5931V42.5285C41.0233 42.9889 40.8404 43.4304 40.5149 43.7559C40.1893 44.0814 39.7478 44.2643 39.2874 44.2643H22.9208C20.0158 44.3036 17.1332 43.7524 14.4477 42.6441C11.7622 41.5358 9.3298 39.8935 7.2981 37.8169C3.14135 33.6554 0.806519 28.014 0.806519 22.1322C0.806519 16.2503 3.14135 10.609 7.2981 6.44749C11.4665 2.34466 17.072 0.0312792 22.9208 2.53784e-05ZM11.8857 17.7305H33.9559C34.2189 17.7305 34.4712 17.626 34.6573 17.44C34.8433 17.254 34.9478 17.0017 34.9478 16.7386C34.969 16.6035 34.9579 16.4653 34.9156 16.3353C34.8732 16.2053 34.8008 16.0871 34.7041 15.9904C34.6074 15.8937 34.4892 15.8213 34.3592 15.7789C34.2292 15.7366 34.091 15.7255 33.9559 15.7467H11.8857C11.7506 15.7255 11.6124 15.7366 11.4824 15.7789C11.3524 15.8213 11.2342 15.8937 11.1375 15.9904C11.0408 16.0871 10.9684 16.2053 10.926 16.3353C10.8836 16.4653 10.8726 16.6035 10.8938 16.7386C10.8938 17.0017 10.9983 17.254 11.1843 17.44C11.3703 17.626 11.6226 17.7305 11.8857 17.7305ZM11.8857 23.1861H33.9559C34.0861 23.1861 34.2151 23.1604 34.3355 23.1106C34.4558 23.0607 34.5652 22.9877 34.6573 22.8956C34.7494 22.8035 34.8224 22.6941 34.8723 22.5738C34.9221 22.4534 34.9478 22.3244 34.9478 22.1942C34.969 22.0591 34.9579 21.9209 34.9156 21.7909C34.8732 21.6609 34.8008 21.5427 34.7041 21.446C34.6074 21.3493 34.4892 21.2768 34.3592 21.2345C34.2292 21.1921 34.091 21.1811 33.9559 21.2023H11.8857C11.7506 21.1811 11.6124 21.1921 11.4824 21.2345C11.3524 21.2768 11.2342 21.3493 11.1375 21.446C11.0408 21.5427 10.9684 21.6609 10.926 21.7909C10.8836 21.9209 10.8726 22.0591 10.8938 22.1942C10.8938 22.3244 10.9195 22.4534 10.9693 22.5738C11.0192 22.6941 11.0922 22.8035 11.1843 22.8956C11.2764 22.9877 11.3858 23.0607 11.5061 23.1106C11.6265 23.1604 11.7555 23.1861 11.8857 23.1861ZM11.8857 28.6416H33.9559C34.2189 28.6416 34.4712 28.5371 34.6573 28.3511C34.8433 28.1651 34.9478 27.9128 34.9478 27.6497C34.969 27.5146 34.9579 27.3764 34.9156 27.2464C34.8732 27.1164 34.8008 26.9982 34.7041 26.9015C34.6074 26.8048 34.4892 26.7324 34.3592 26.69C34.2292 26.6476 34.091 26.6366 33.9559 26.6578H11.8857C11.7506 26.6366 11.6124 26.6476 11.4824 26.69C11.3524 26.7324 11.2342 26.8048 11.1375 26.9015C11.0408 26.9982 10.9684 27.1164 10.926 27.2464C10.8836 27.3764 10.8726 27.5146 10.8938 27.6497C10.8938 27.9128 10.9983 28.1651 11.1843 28.3511C11.3703 28.5371 11.6226 28.6416 11.8857 28.6416ZM36.6836 8.92728C34.8786 7.12517 32.7307 5.70298 30.3669 4.74468C28.0031 3.78637 25.4712 3.31138 22.9208 3.34775C17.9345 3.37928 13.1639 5.3856 9.6539 8.92728C7.91709 10.6715 6.54126 12.741 5.60513 15.0175C4.66901 17.294 4.19096 19.7327 4.19836 22.1942C4.21033 27.1601 6.16904 31.9233 9.6539 35.4611C11.3981 37.1979 13.4676 38.5737 15.7441 39.5098C18.0206 40.446 20.4594 40.924 22.9208 40.9166H37.9235V34.2212C37.799 33.9022 37.799 33.5482 37.9235 33.2293C39.0744 31.6311 39.9928 29.8778 40.6513 28.0217C41.2505 26.1381 41.5435 24.1706 41.5192 22.1942C41.5869 17.2607 39.7172 12.4974 36.3117 8.92728H36.6836Z" fill="#C0965C"/>
</svg>
