<svg width="57" height="54" viewBox="0 0 57 54" fill="none" xmlns="http://www.w3.org/2000/svg">
<path d="M22.2751 43.4575C22.1017 43.4411 21.9269 43.4624 21.762 43.5198C21.597 43.5772 21.4455 43.6695 21.3172 43.7908C21.1888 43.9121 21.0865 44.0597 21.0167 44.2242C20.9469 44.3887 20.9113 44.5664 20.912 44.746V46.8544C20.912 47.2272 21.0556 47.5847 21.3112 47.8484C21.5669 48.112 21.9136 48.2601 22.2751 48.2601C22.4492 48.2608 22.6215 48.224 22.781 48.1521C22.9405 48.0801 23.0837 47.9746 23.2013 47.8422C23.319 47.7099 23.4085 47.5537 23.4642 47.3835C23.5198 47.2134 23.5404 47.0332 23.5246 46.8544V44.746C23.5246 44.4042 23.3929 44.0765 23.1586 43.8348C22.9243 43.5932 22.6065 43.4575 22.2751 43.4575ZM25.7964 43.4575C25.465 43.4575 25.1472 43.5932 24.9129 43.8348C24.6785 44.0765 24.5469 44.4042 24.5469 44.746V46.8544C24.5311 47.0332 24.5516 47.2134 24.6073 47.3835C24.663 47.5537 24.7525 47.7099 24.8701 47.8422C24.9878 47.9746 25.1309 48.0801 25.2904 48.1521C25.45 48.224 25.6223 48.2608 25.7964 48.2601C26.1579 48.2601 26.5046 48.112 26.7602 47.8484C27.0158 47.5847 27.1595 47.2272 27.1595 46.8544V44.746C27.1602 44.5664 27.1245 44.3887 27.0547 44.2242C26.985 44.0597 26.8826 43.9121 26.7543 43.7908C26.6259 43.6695 26.4744 43.5772 26.3095 43.5198C26.1445 43.4624 25.9698 43.4411 25.7964 43.4575ZM18.6402 43.4575C18.4761 43.4575 18.3136 43.4908 18.162 43.5555C18.0104 43.6203 17.8727 43.7152 17.7567 43.8348C17.6406 43.9545 17.5486 44.0965 17.4858 44.2529C17.423 44.4092 17.3907 44.5767 17.3907 44.746V46.8544C17.3907 47.1961 17.5223 47.5239 17.7567 47.7655C17.991 48.0072 18.3088 48.1429 18.6402 48.1429C18.9716 48.1429 19.2894 48.0072 19.5237 47.7655C19.758 47.5239 19.8897 47.1961 19.8897 46.8544V44.746C19.8897 44.4042 19.758 44.0765 19.5237 43.8348C19.2894 43.5932 18.9716 43.4575 18.6402 43.4575ZM50.3319 43.4575C49.9892 43.4562 49.6587 43.5881 49.4061 43.8269C49.1535 44.0657 48.9973 44.3938 48.9688 44.746V46.8544C48.9688 47.2272 49.1124 47.5847 49.368 47.8484C49.6236 48.112 49.9704 48.2601 50.3319 48.2601C50.506 48.2608 50.6783 48.224 50.8378 48.1521C50.9973 48.0801 51.1405 47.9746 51.2581 47.8422C51.3758 47.7099 51.4653 47.5537 51.5209 47.3835C51.5766 47.2134 51.5972 47.0332 51.5814 46.8544V44.746C51.5814 44.5767 51.549 44.4092 51.4862 44.2529C51.4235 44.0965 51.3314 43.9545 51.2154 43.8348C51.0994 43.7152 50.9616 43.6203 50.81 43.5555C50.6584 43.4908 50.496 43.4575 50.3319 43.4575ZM43.1757 43.4575C43.0023 43.4411 42.8275 43.4624 42.6626 43.5198C42.4976 43.5772 42.3461 43.6695 42.2178 43.7908C42.0894 43.9121 41.9871 44.0597 41.9173 44.2242C41.8475 44.3887 41.8119 44.5664 41.8126 44.746V46.8544C41.8126 47.2272 41.9562 47.5847 42.2118 47.8484C42.4675 48.112 42.8142 48.2601 43.1757 48.2601C43.3498 48.2608 43.5221 48.224 43.6816 48.1521C43.8411 48.0801 43.9843 47.9746 44.1019 47.8422C44.2196 47.7099 44.3091 47.5537 44.3648 47.3835C44.4204 47.2134 44.441 47.0332 44.4252 46.8544V44.746C44.4252 44.4042 44.2935 44.0765 44.0592 43.8348C43.8249 43.5932 43.5071 43.4575 43.1757 43.4575ZM46.697 43.4575H46.2426C45.9112 43.4575 45.5934 43.5932 45.3591 43.8348C45.1248 44.0765 44.9931 44.4042 44.9931 44.746V46.8544C44.9931 47.1961 45.1248 47.5239 45.3591 47.7655C45.5934 48.0072 45.9112 48.1429 46.2426 48.1429C46.574 48.1429 46.8918 48.0072 47.1261 47.7655C47.3605 47.5239 47.4921 47.1961 47.4921 46.8544V44.746C47.4921 44.4042 47.3605 44.0765 47.1261 43.8348C46.8918 43.5932 46.574 43.4575 46.2426 43.4575H46.697ZM55.6706 20.0301C55.278 19.5551 54.7906 19.1732 54.2417 18.9103C53.6928 18.6475 53.0953 18.5101 52.4901 18.5074H49.7639L40.7903 2.57677C40.5434 1.98933 40.1851 1.45873 39.7364 1.01617C39.2877 0.573614 38.7578 0.228037 38.1777 -0.000239551C37.6586 -0.235785 37.0978 -0.357422 36.5307 -0.357422C35.9636 -0.357422 35.4027 -0.235785 34.8836 -0.000239551L3.07832 19.4444C2.52028 19.739 2.02921 20.1524 1.63759 20.6572C1.24597 21.162 0.9627 21.7468 0.806517 22.3729C0.584684 22.9099 0.470337 23.4876 0.470337 24.0713C0.470337 24.6551 0.584684 25.2328 0.806517 25.7698L11.484 43.6917V49.3143C11.4713 49.9191 11.5752 50.5204 11.7897 51.0834C12.0042 51.6465 12.325 52.16 12.7335 52.5941C13.1092 53.0512 13.5801 53.4151 14.1112 53.6584C14.6422 53.9018 15.2196 54.0185 15.8004 53.9998H52.4901C53.0876 54.0195 53.6821 53.9038 54.2316 53.6609C54.7812 53.4181 55.2723 53.0539 55.6706 52.5941C56.4154 51.6749 56.8181 50.5121 56.8065 49.3143V23.4271C56.8448 22.26 56.4369 21.1242 55.6706 20.2644V20.0301ZM11.484 23.4271V35.1408L5.12295 23.4271L36.8146 4.45095L44.5388 18.2731H15.8004C15.1829 18.3017 14.5774 18.46 14.0212 18.7382C13.465 19.0165 12.9697 19.4088 12.5657 19.8913C12.1616 20.3738 11.8573 20.9362 11.6713 21.5442C11.4853 22.1521 11.4216 22.7928 11.484 23.4271ZM52.6037 49.3143H15.8004V23.4271H52.4901V49.3143H52.6037ZM34.8836 43.4575C34.5522 43.4575 34.2344 43.5932 34.0001 43.8348C33.7657 44.0765 33.6341 44.4042 33.6341 44.746V46.8544C33.5569 47.0568 33.5306 47.2761 33.5578 47.4918C33.5849 47.7075 33.6645 47.9126 33.7893 48.088C33.914 48.2634 34.0798 48.4034 34.2711 48.495C34.4625 48.5865 34.6732 48.6266 34.8836 48.6115C35.0553 48.5579 35.2151 48.4699 35.3538 48.3526C35.4924 48.2352 35.6073 48.0907 35.6917 47.9275C35.7761 47.7643 35.8285 47.5854 35.8457 47.4013C35.863 47.2172 35.8448 47.0313 35.7923 46.8544V44.746C35.8029 44.4572 35.719 44.1732 35.5542 43.9395C35.3894 43.7058 35.1532 43.5361 34.8836 43.4575ZM38.5185 43.4575C38.1871 43.4575 37.8693 43.5932 37.635 43.8348C37.4006 44.0765 37.269 44.4042 37.269 44.746V46.8544C37.2532 47.0332 37.2737 47.2134 37.3294 47.3835C37.3851 47.5537 37.4746 47.7099 37.5922 47.8422C37.7099 47.9746 37.853 48.0801 38.0126 48.1521C38.1721 48.224 38.3444 48.2608 38.5185 48.2601C38.7972 48.159 39.0366 47.9672 39.2005 47.7137C39.3644 47.4602 39.4439 47.1586 39.4272 46.8544V44.746C39.3987 44.3938 39.2425 44.0657 38.9899 43.8269C38.7373 43.5881 38.4068 43.4562 38.0641 43.4575H38.5185ZM31.3623 43.4575C31.1889 43.4411 31.0141 43.4624 30.8492 43.5198C30.6842 43.5772 30.5327 43.6695 30.4044 43.7908C30.276 43.9121 30.1737 44.0597 30.1039 44.2242C30.0342 44.3887 29.9985 44.5664 29.9992 44.746V46.8544C29.9992 47.2272 30.1428 47.5847 30.3985 47.8484C30.6541 48.112 31.0008 48.2601 31.3623 48.2601C31.6314 48.1558 31.8574 47.9591 32.0023 47.7031C32.1471 47.447 32.2019 47.1473 32.1574 46.8544V44.746C32.1574 44.4042 32.0258 44.0765 31.7915 43.8348C31.5571 43.5932 31.2393 43.4575 30.9079 43.4575H31.3623ZM26.9323 29.7525H18.6402C18.4761 29.7525 18.3136 29.7858 18.162 29.8505C18.0104 29.9153 17.8727 30.0102 17.7567 30.1299C17.6406 30.2495 17.5486 30.3916 17.4858 30.5479C17.423 30.7042 17.3907 30.8718 17.3907 31.041V39.5919C17.3907 39.9337 17.5223 40.2614 17.7567 40.5031C17.991 40.7447 18.3088 40.8804 18.6402 40.8804H26.9323C27.1057 40.8968 27.2804 40.8755 27.4454 40.8181C27.6103 40.7607 27.7619 40.6684 27.8902 40.5471C28.0185 40.4258 28.1209 40.2782 28.1906 40.1137C28.2604 39.9492 28.2961 39.7715 28.2954 39.5919V31.041C28.2961 30.8614 28.2604 30.6837 28.1906 30.5192C28.1209 30.3548 28.0185 30.2071 27.8902 30.0858C27.7619 29.9645 27.6103 29.8722 27.4454 29.8148C27.2804 29.7574 27.1057 29.7361 26.9323 29.7525ZM25.6828 38.3034H20.0033V32.4466H25.6828V38.3034Z" fill="#C0965C"/>
</svg>
